<?xml version="1.0" standalone="no"?>
<!DOCTYPE svg PUBLIC "-//W3C//DTD SVG 20010904//EN"
 "http://www.w3.org/TR/2001/REC-SVG-20010904/DTD/svg10.dtd">
<svg version="1.0" xmlns="http://www.w3.org/2000/svg"
 width="58.000000pt" height="57.000000pt" viewBox="0 0 58.000000 57.000000"
 preserveAspectRatio="xMidYMid meet">
 <defs>
    <linearGradient id="grad1" x1="0%" y1="0%" x2="100%" y2="100%">
      <stop offset="0%" style="stop-color:rgb(255, 0, 0);stop-opacity:1" />
      <stop offset="100%" style="stop-color:rgb(244, 150, 0);stop-opacity:1" />
    </linearGradient>
  </defs>
<metadata>
Created by potrace 1.10, written by Peter Selinger 2001-2011
</metadata>
<g transform="translate(0.000000,57.000000) scale(0.100000,-0.100000)"
fill="url(#grad1)" stroke="none">
<path d="M186 544 c-59 -21 -121 -78 -150 -136 -50 -100 -30 -235 47 -317 68
-72 191 -100 301 -70 59 16 148 110 167 174 54 191 -76 367 -270 364 -31 0
-74 -7 -95 -15z m190 -19 l36 -15 -4 -134 c-4 -155 -15 -181 -86 -204 -23 -8
-42 -19 -42 -24 0 -15 57 -2 90 22 44 32 55 71 55 207 0 68 3 123 6 123 3 0
15 -10 26 -22 19 -21 20 -33 17 -136 -3 -94 -7 -119 -25 -152 -26 -46 -85 -89
-131 -94 -18 -2 -34 -9 -36 -16 -4 -10 4 -11 27 -7 90 18 163 84 179 163 5 27
8 84 7 127 -2 42 -2 77 0 77 1 0 13 -21 25 -47 28 -61 30 -153 3 -214 -53
-119 -183 -181 -307 -145 l-57 17 2 107 c1 59 5 125 10 147 9 47 57 95 94 95
14 0 25 5 25 10 0 6 -13 10 -30 10 -20 0 -41 -11 -69 -37 -34 -33 -40 -46 -46
-96 -4 -32 -5 -96 -3 -143 l4 -84 -26 25 c-25 24 -26 28 -24 131 2 58 8 120
14 138 19 60 95 116 156 116 13 0 24 5 24 11 0 21 -81 2 -124 -28 -23 -16 -51
-49 -65 -77 -22 -43 -26 -63 -26 -148 0 -54 -1 -98 -3 -98 -2 0 -12 19 -22 42
-29 64 -27 165 5 227 58 115 207 174 321 126z"/>
</g>
</svg>
